<svg width="200" height="200" viewBox="0 0 200 200" fill="none" xmlns="http://www.w3.org/2000/svg">
<g clip-path="url(#clip0_837_10194)">
<path d="M158 89C158 100.047 149.047 109 138 109C126.953 109 118 100.047 118 89C118 77.9531 126.961 69 138 69C149.047 69 158 77.9531 158 89Z" fill="white"/>
<path d="M145.75 89C145.75 96.5937 139.594 102.75 132 102.75C124.406 102.75 118.25 96.5937 118.25 89C118.25 81.4063 124.406 75.25 132 75.25C139.594 75.25 145.75 81.4063 145.75 89Z" fill="#64AAFF"/>
<path d="M136.75 89C136.75 93.1406 133.391 96.5 129.25 96.5C125.109 96.5 121.75 93.1406 121.75 89C121.75 84.8594 125.109 81.5 129.25 81.5C133.391 81.5 136.75 84.8594 136.75 89Z" fill="#2B3B47"/>
<path d="M137.604 84.2662C137.53 85.9912 136.073 87.3286 134.348 87.2548C132.623 87.181 131.286 85.724 131.359 83.999C131.433 82.2741 132.89 80.9367 134.615 81.0105C136.34 81.0843 137.677 82.549 137.604 84.2662Z" fill="#D4EDF6"/>
<path d="M136.32 86.6375C135.612 84.5624 134.044 82.9303 132.068 82.1218C131.523 82.7465 131.218 83.5761 131.303 84.4705C131.467 86.1893 132.991 87.4489 134.71 87.2852C135.324 87.2189 135.874 86.986 136.32 86.6375Z" fill="#D6DBDE"/>
</g>
<g clip-path="url(#clip1_837_10194)">
<path d="M82 89C82 100.047 73.0469 109 62 109C50.9531 109 42 100.047 42 89C42 77.9531 50.9609 69 62 69C73.0469 69 82 77.9531 82 89Z" fill="white"/>
<path d="M69.75 89C69.75 96.5937 63.5937 102.75 56 102.75C48.4063 102.75 42.25 96.5937 42.25 89C42.25 81.4063 48.4063 75.25 56 75.25C63.5937 75.25 69.75 81.4063 69.75 89Z" fill="#64AAFF"/>
<path d="M60.75 89C60.75 93.1406 57.3906 96.5 53.25 96.5C49.1094 96.5 45.75 93.1406 45.75 89C45.75 84.8594 49.1094 81.5 53.25 81.5C57.3906 81.5 60.75 84.8594 60.75 89Z" fill="#2B3B47"/>
<path d="M61.6037 84.2662C61.5299 85.9912 60.073 87.3286 58.348 87.2548C56.623 87.181 55.2856 85.724 55.3594 83.999C55.4332 82.2741 56.8902 80.9367 58.6152 81.0105C60.3401 81.0843 61.6772 82.549 61.6037 84.2662Z" fill="#D4EDF6"/>
<path d="M60.32 86.6375C59.6123 84.5624 58.0442 82.9303 56.0681 82.1218C55.5233 82.7465 55.2177 83.5761 55.3029 84.4705C55.4666 86.1893 56.9913 87.4489 58.7101 87.2852C59.3238 87.2189 59.8745 86.986 60.32 86.6375Z" fill="#D6DBDE"/>
</g>
<defs>
<clipPath id="clip0_837_10194">
<rect width="40" height="40" fill="white" transform="matrix(0 1 -1 0 158 69)"/>
</clipPath>
<clipPath id="clip1_837_10194">
<rect width="40" height="40" fill="white" transform="matrix(0 1 -1 0 82 69)"/>
</clipPath>
</defs>
</svg>
