<svg width="1024" height="1024" viewBox="0 0 1024 1024" fill="none" xmlns="http://www.w3.org/2000/svg">
<path d="M752 700.8C752 833.6 644.8 896 512 896C379.2 896 272 833.6 272 700.8C272 566.4 380.8 624 512 624C644.8 624 752 566.4 752 700.8Z" fill="#64AAFF"/>
<path d="M512 832C565.019 832 608 796.183 608 752C608 707.817 565.019 672 512 672C458.981 672 416 707.817 416 752C416 796.183 458.981 832 512 832Z" fill="#6235A8"/>
<path d="M512 736C414.4 736 336 724.8 336 819.2C336 915.2 414.4 992 512 992C609.6 992 688 915.2 688 820.8C688 724.8 609.6 736 512 736ZM512 934.4C443.2 934.4 379.2 888 379.2 820.8C379.2 753.6 443.2 769.6 512 769.6C580.8 769.6 644.8 753.6 644.8 820.8C644.8 888 580.8 934.4 512 934.4Z" fill="#FFB300"/>
<path d="M576 780.8C576 790.4 568 800 558.4 800H465.6C456 800 448 792 448 780.8V737.6C448 728 456 718.4 465.6 718.4H558.4C568 718.4 576 726.4 576 737.6V780.8Z" fill="#64AAFF"/>
</svg>
